<?xml version="1.0" encoding="UTF-8" standalone="no"?>
<svg
   xmlns:dc="http://purl.org/dc/elements/1.1/"
   xmlns:cc="http://creativecommons.org/ns#"
   xmlns:rdf="http://www.w3.org/1999/02/22-rdf-syntax-ns#"
   xmlns:svg="http://www.w3.org/2000/svg"
   xmlns="http://www.w3.org/2000/svg"
   xmlns:sodipodi="http://sodipodi.sourceforge.net/DTD/sodipodi-0.dtd"
   xmlns:inkscape="http://www.inkscape.org/namespaces/inkscape"
   width="115.06435mm"
   height="23.157709mm"
   viewBox="0 0 115.06437 23.157709"
   version="1.1"
   id="svg8"
   sodipodi:docname="dilimatch_logo.svg"
   inkscape:version="1.0.1 (3bc2e813f5, 2020-09-07)">
  <defs
     id="defs2" />
  <sodipodi:namedview
     id="base"
     pagecolor="#ffffff"
     bordercolor="#666666"
     borderopacity="1.0"
     inkscape:pageopacity="0.0"
     inkscape:pageshadow="2"
     inkscape:zoom="0.98994949"
     inkscape:cx="190.32463"
     inkscape:cy="-72.966531"
     inkscape:document-units="mm"
     inkscape:current-layer="layer1"
     inkscape:document-rotation="0"
     showgrid="false"
     inkscape:window-width="1920"
     inkscape:window-height="1025"
     inkscape:window-x="0"
     inkscape:window-y="26"
     inkscape:window-maximized="1"
     fit-margin-top="2.5"
     fit-margin-left="0.5"
     fit-margin-right="0.5"
     fit-margin-bottom="1" />
  <metadata
     id="metadata5">
    <rdf:RDF>
      <cc:Work
         rdf:about="">
        <dc:format>image/svg+xml</dc:format>
        <dc:type
           rdf:resource="http://purl.org/dc/dcmitype/StillImage" />
        <dc:title></dc:title>
      </cc:Work>
    </rdf:RDF>
  </metadata>
  <g
     inkscape:label="Layer 1"
     inkscape:groupmode="layer"
     id="layer1"
     transform="translate(-45.553255,-87.049575)">
    <g
       aria-label="dilimatch"
       id="text835"
       style="font-style:normal;font-variant:normal;font-weight:normal;font-stretch:normal;font-size:25.4px;line-height:1.25;font-family:sans-serif;-inkscape-font-specification:'sans-serif, Normal';font-variant-ligatures:normal;font-variant-caps:normal;font-variant-numeric:normal;font-variant-east-asian:normal;letter-spacing:0px;word-spacing:0px;fill:#ff5555;fill-opacity:1;stroke:none;stroke-width:0.264583"
       transform="translate(3.527961,-5.4523049)">
      <path
         d="m 52.658008,102.5177 v -7.51582 h 2.282032 v 19.29805 h -2.282032 v -2.0836 q -0.719336,1.24024 -1.823144,1.84795 -1.091406,0.59531 -2.629297,0.59531 -2.517676,0 -4.105176,-2.00917 -1.575097,-2.00918 -1.575097,-5.2834 0,-3.27422 1.575097,-5.2834 1.5875,-2.00918 4.105176,-2.00918 1.537891,0 2.629297,0.60771 1.103808,0.59532 1.823144,1.83555 z m -7.776269,4.84932 q 0,2.51767 1.029395,3.95634 1.041796,1.42627 2.852539,1.42627 1.810742,0 2.852539,-1.42627 1.041796,-1.43867 1.041796,-3.95634 0,-2.51768 -1.041796,-3.94395 -1.041797,-1.43867 -2.852539,-1.43867 -1.810743,0 -2.852539,1.43867 -1.029395,1.42627 -1.029395,3.94395 z"
         style="font-style:normal;font-variant:normal;font-weight:normal;font-stretch:normal;font-size:25.4px;font-family:sans-serif;-inkscape-font-specification:'sans-serif, Normal';font-variant-ligatures:normal;font-variant-caps:normal;font-variant-numeric:normal;font-variant-east-asian:normal;fill:#ff5555;stroke-width:0.264583"
         id="path837" />
      <path
         d="m 59.640528,100.4093 h 2.282031 v 13.89063 h -2.282031 z m 0,-5.40742 h 2.282031 v 2.889746 h -2.282031 z"
         style="font-style:normal;font-variant:normal;font-weight:normal;font-stretch:normal;font-size:25.4px;font-family:sans-serif;-inkscape-font-specification:'sans-serif, Normal';font-variant-ligatures:normal;font-variant-caps:normal;font-variant-numeric:normal;font-variant-east-asian:normal;fill:#ff5555;stroke-width:0.264583"
         id="path839" />
      <path
         d="m 66.697462,95.00188 h 2.282032 v 19.29805 h -2.282032 z"
         style="font-style:normal;font-variant:normal;font-weight:normal;font-stretch:normal;font-size:25.4px;font-family:sans-serif;-inkscape-font-specification:'sans-serif, Normal';font-variant-ligatures:normal;font-variant-caps:normal;font-variant-numeric:normal;font-variant-east-asian:normal;fill:#ff5555;stroke-width:0.264583"
         id="path841" />
      <path
         d="m 73.754395,100.4093 h 2.282031 v 13.89063 h -2.282031 z"
         style="font-style:normal;font-variant:normal;font-weight:normal;font-stretch:normal;font-size:25.4px;font-family:sans-serif;-inkscape-font-specification:'sans-serif, Normal';font-variant-ligatures:normal;font-variant-caps:normal;font-variant-numeric:normal;font-variant-east-asian:normal;fill:#ff5555;stroke-width:0.264583"
         id="path843"
         sodipodi:nodetypes="ccccc" />
      <path
         d="m 91.626171,103.07581 c 0.570508,-1.02526 1.252637,-1.7818 2.046387,-2.26963 0.79375,-0.48783 1.72806,-0.73174 2.802929,-0.73174 1.44694,0 2.563151,0.5085 3.348633,1.52549 0.78548,1.00872 1.17822,2.44739 1.17822,4.31601 v 8.38399 h -2.294431 v -8.30957 c 0,-1.33119 -0.235644,-2.31924 -0.706933,-2.96416 -0.471289,-0.64493 -1.190625,-0.96739 -2.158008,-0.96739 -1.182357,0 -2.116667,0.39274 -2.80293,1.17823 -0.686263,0.78548 -1.029394,1.85621 -1.029394,3.2122 v 7.85069 H 89.71621 v -8.30957 c 0,-1.33945 -0.235645,-2.32751 -0.706934,-2.96416 -0.471289,-0.64493 -1.198893,-0.96739 -2.182812,-0.96739 -1.16582,0 -2.091862,0.39688 -2.778125,1.19063 -0.686263,0.78548 -1.029395,1.85208 -1.029395,3.1998 v 7.85069 H 80.724511 V 100.4093 c 0,0 -0.02005,-0.471063 1.126782,-0.481085 1.262826,-0.01104 1.167651,0.481085 1.167651,0.481085 v 2.15801 c 0.520899,-0.85163 1.14515,-1.48001 1.872754,-1.88516 0.727605,-0.40514 1.591635,-0.60771 2.59209,-0.60771 1.008724,0 1.864486,0.25631 2.567285,0.76894 0.711068,0.51263 1.236101,1.25678 1.575098,2.23243 z"
         style="font-style:normal;font-variant:normal;font-weight:normal;font-stretch:normal;font-size:25.4px;font-family:sans-serif;-inkscape-font-specification:'sans-serif, Normal';font-variant-ligatures:normal;font-variant-caps:normal;font-variant-numeric:normal;font-variant-east-asian:normal;fill:#ff2a2a;stroke-width:0.264583"
         id="path845"
         sodipodi:nodetypes="csscsccsssssccscscscccsccsscc" />
      <path
         d="m 111.8668,107.31741 q -2.76573,0 -3.83233,0.63252 -1.0666,0.63252 -1.0666,2.158 0,1.21543 0.79375,1.93477 0.80615,0.70693 2.18281,0.70693 1.89756,0 3.03858,-1.33945 1.15341,-1.35185 1.15341,-3.58428 v -0.50849 z m 4.55166,-0.94258 v 7.9251 h -2.28204 v -2.1084 q -0.78134,1.26504 -1.94716,1.87275 -1.16582,0.59531 -2.85254,0.59531 -2.13321,0 -3.39824,-1.19062 -1.25264,-1.20303 -1.25264,-3.21221 0,-2.34404 1.56269,-3.53467 1.5751,-1.19062 4.68809,-1.19062 h 3.1998 v -0.22324 q 0,-1.5751 -1.04179,-2.43086 -1.0294,-0.86817 -2.90215,-0.86817 -1.19063,0 -2.31924,0.28526 -1.12861,0.28525 -2.17041,0.85576 v -2.1084 q 1.25264,-0.48369 2.43086,-0.71933 1.17822,-0.24805 2.29443,-0.24805 3.01377,0 4.50205,1.56269 1.48829,1.5627 1.48829,4.7377 z"
         style="font-style:normal;font-variant:normal;font-weight:normal;font-stretch:normal;font-size:25.4px;font-family:sans-serif;-inkscape-font-specification:'sans-serif, Normal';font-variant-ligatures:normal;font-variant-caps:normal;font-variant-numeric:normal;font-variant-east-asian:normal;fill:#ff2a2a;stroke-width:0.264583"
         id="path847" />
      <path
         d="m 123.37617,96.465357 v 3.943943 h 4.70049 c 0,0 0.22652,0.57951 0.22679,0.88359 2.6e-4,0.30613 -0.22679,0.88995 -0.22679,0.88995 h -4.70049 v 7.54062 c 0,1.13275 0.15296,1.86035 0.45889,2.18281 0.31419,0.32247 0.94671,0.4837 1.89756,0.4837 h 2.34404 v 1.90996 h -2.34404 c -1.76113,0 -2.97656,-0.3266 -3.64629,-0.97979 -0.66973,-0.66146 -1.00459,-1.86035 -1.00459,-3.59668 v -7.54062 h -1.67432 c 0,0 -0.20081,-0.60514 -0.19844,-0.91829 0.002,-0.29265 0.19844,-0.85525 0.19844,-0.85525 h 1.67432 v -3.943943 l 1.16993,-0.226785 z"
         style="font-style:normal;font-variant:normal;font-weight:normal;font-stretch:normal;font-size:25.4px;font-family:sans-serif;-inkscape-font-specification:'sans-serif, Normal';font-variant-ligatures:normal;font-variant-caps:normal;font-variant-numeric:normal;font-variant-east-asian:normal;fill:#ff2a2a;stroke-width:0.264583"
         id="path849"
         sodipodi:nodetypes="cccaccscsccscsccaccccc" />
      <path
         d="m 141.07432,100.9426 v 2.13321 q -0.96739,-0.5333 -1.94717,-0.79375 -0.96738,-0.27286 -1.95957,-0.27286 -2.22002,0 -3.44785,1.41387 -1.22783,1.40147 -1.22783,3.94395 0,2.54248 1.22783,3.95634 1.22783,1.40147 3.44785,1.40147 0.99219,0 1.95957,-0.26045 0.97978,-0.27285 1.94717,-0.80615 v 2.1084 q -0.95498,0.44648 -1.98438,0.66972 -1.01699,0.22324 -2.17041,0.22324 -3.13779,0 -4.98574,-1.97197 -1.84795,-1.97197 -1.84795,-5.3206 0,-3.39825 1.86035,-5.34541 1.87276,-1.94717 5.12217,-1.94717 1.0542,0 2.05879,0.22324 1.00459,0.21084 1.94717,0.64492 z"
         style="font-style:normal;font-variant:normal;font-weight:normal;font-stretch:normal;font-size:25.4px;font-family:sans-serif;-inkscape-font-specification:'sans-serif, Normal';font-variant-ligatures:normal;font-variant-caps:normal;font-variant-numeric:normal;font-variant-east-asian:normal;fill:#ff2a2a;stroke-width:0.264583"
         id="path851" />
      <path
         d="m 156.58965,105.91594 v 8.38399 h -2.28203 v -8.30957 q 0,-1.97198 -0.76894,-2.95176 -0.76895,-0.97979 -2.30684,-0.97979 -1.84795,0 -2.91455,1.17823 -1.0666,1.17822 -1.0666,3.2122 v 7.85069 h -2.29444 V 95.00188 h 2.29444 v 7.56543 q 0.81855,-1.25264 1.92236,-1.87275 1.11621,-0.62012 2.56729,-0.62012 2.39365,0 3.62148,1.48828 1.22783,1.47588 1.22783,4.35322 z"
         style="font-style:normal;font-variant:normal;font-weight:normal;font-stretch:normal;font-size:25.4px;font-family:sans-serif;-inkscape-font-specification:'sans-serif, Normal';font-variant-ligatures:normal;font-variant-caps:normal;font-variant-numeric:normal;font-variant-east-asian:normal;fill:#ff2a2a;stroke-width:0.264583"
         id="path853" />
    </g>
    <path
       id="path858"
       style="opacity:1;fill:#ff5555;fill-opacity:1;stroke-width:0.264583"
       d="m 78.313058,90.412128 a 1.2614953,1.2614953 0 0 0 -1.261419,1.261419 1.2614953,1.2614953 0 0 0 1.261419,1.261423 1.2614953,1.2614953 0 0 0 1.261423,-1.261423 1.2614953,1.2614953 0 0 0 -1.261423,-1.261419 z" />
  </g>
</svg>
